<svg xmlns="http://www.w3.org/2000/svg" width="98" height="162" viewBox="0 0 98 162">
    <g fill="none" fill-rule="evenodd">
        <g transform="translate(36.218)">
            <path fill="#CD7900" d="M6.338 14.4c2.5 0 4.527 2.027 4.527 4.527v52.297A2.576 2.576 0 0 1 8.29 73.8H4.387a2.576 2.576 0 0 1-2.576-2.576V18.927c0-2.5 2.027-4.527 4.527-4.527z"/>
            <path fill="#FFD300" d="M7.562 1.152l4.154 4.129a1.585 1.585 0 0 1 0 2.249l-4.154 4.128a1.585 1.585 0 0 1-2.235 0L1.173 7.53a1.585 1.585 0 0 1 0-2.249l4.154-4.129a1.585 1.585 0 0 1 2.235 0z"/><rect width="26.158" height="30.2" x="13.28" y="18.2" fill="#1899D6" rx="3.171"/><path fill="#1CB0F6" d="M34.157 21.8H58.4a3.17 3.17 0 0 1 3.17 3.17v23.86A3.17 3.17 0 0 1 58.4 52H34.157a3.17 3.17 0 0 1-3.17-3.17V24.97a3.17 3.17 0 0 1 3.17-3.17z"/><rect width="8.451" height="30.2" x="30.987" y="18.2" fill="#1CB0F6" rx="3.171"/></g><g transform="translate(0 64.8)"><path fill="#FFC800" d="M78.733 71.866a5.949 5.949 0 0 1 5.567 5.936v12.551a5.949 5.949 0 0 1-5.95 5.949H7.137a5.949 5.949 0 0 1-5.949-5.949v-12.55a5.95 5.95 0 0 1 5.786-5.947l3.423-44.183H5.95A5.949 5.949 0 0 1 0 21.724V5.95A5.949 5.949 0 0 1 5.949 0h11.849a5.949 5.949 0 0 1 5.948 5.949v4.013h7.124V5.95A5.949 5.949 0 0 1 36.82 0h11.849a5.949 5.949 0 0 1 5.949 5.949v4.013h7.124V5.95A5.949 5.949 0 0 1 67.689 0h11.85a5.949 5.949 0 0 1 5.948 5.949v15.775a5.949 5.949 0 0 1-5.949 5.949h-3.51l2.705 44.193z"/><path fill="#FFDE00" d="M13.554 4.434H17.9c1.095 0 1.983.887 1.983 1.983v15.98a1.983 1.983 0 0 1-1.983 1.984h-4.346a1.983 1.983 0 0 1-1.983-1.983V6.417c0-1.096.888-1.983 1.983-1.983z"/><rect width="8.311" height="18.216" x="35.823" y="4.434" fill="#FFDE00" rx="1.983"/><path fill="#FFDE00" d="M19.02 12.176h23.213c1.096 0 1.983.888 1.983 1.983v8.21a1.983 1.983 0 0 1-1.983 1.983H19.02a1.983 1.983 0 0 1-1.983-1.983v-8.21c0-1.095.888-1.983 1.983-1.983zM14.087 76h28.146c1.096 0 1.983.887 1.983 1.982v10.602a1.983 1.983 0 0 1-1.983 1.983H14.087a1.983 1.983 0 0 1-1.983-1.983V77.982c0-1.095.888-1.982 1.983-1.982zm8.416-46.715h19.752c1.095 0 1.983.888 1.983 1.983v37.496a1.983 1.983 0 0 1-1.983 1.983H19.531a1.983 1.983 0 0 1-1.977-2.14l2.973-37.495a1.983 1.983 0 0 1 1.976-1.827z"/></g></g></svg>