<svg width="40" height="40" viewBox="0 0 40 40" version="1.1" xmlns="http://www.w3.org/2000/svg"><title>crown</title><g stroke="none" stroke-width="1" fill="none" fill-rule="evenodd"><g><g><path d="M12.756 14.993l4.876-5.111a3.281 3.281 0 0 1 4.67-.079l5.292 5.186 2.843-2.261a2.481 2.481 0 0 1 3.939 2.591L30.67 28.971a2.8 2.8 0 0 1-2.702 2.067h-16.06a2.8 2.8 0 0 1-2.703-2.067l-3.65-13.453a2.638 2.638 0 0 1 4.117-2.81l3.083 2.285z" stroke="#FFF" stroke-width="2" fill="#FFC800"/><path d="M11.16 17.002l1.099.942a.9.9 0 0 0 1.273-.102l2.717-3.212a1.14 1.14 0 0 1 2.008.646l.936 11.787a1.14 1.14 0 0 1-1.137 1.23h-4.48a1.14 1.14 0 0 1-1.103-.854l-2.508-9.692a.739.739 0 0 1 1.196-.745z" fill="#FFDE00"/></g></g></g></svg>