<svg width="880" height="685" viewBox="0 0 880 685" version="1.1" xmlns="http://www.w3.org/2000/svg">
<g transform="translate(0.000000,685.000000) scale(0.100000,-0.100000)"
fill="#000000" stroke="none">
<path d="M6638 6372 c-7 -10 -31 -27 -52 -38 -56 -27 -69 -68 -72 -230 -1 -72
-7 -156 -14 -187 -13 -63 -31 -81 -115 -112 -27 -10 -81 -34 -118 -52 -38 -19
-94 -43 -125 -54 -30 -11 -70 -28 -87 -38 -17 -10 -49 -24 -71 -31 -46 -15
-121 -46 -149 -62 -42 -25 -150 -78 -158 -78 -7 0 -44 -15 -122 -50 -53 -24
-217 -69 -275 -75 -35 -4 -82 -14 -104 -21 -21 -8 -56 -14 -78 -14 -21 0 -52
-7 -68 -15 -16 -8 -59 -19 -96 -24 -38 -6 -71 -16 -75 -24 -11 -18 -127 -64
-227 -90 -51 -13 -62 -3 -62 55 0 20 -5 60 -11 88 -12 58 3 205 27 252 25 48
18 142 -16 213 -42 89 -90 118 -229 140 -58 9 -108 18 -113 21 -10 6 -107 -15
-123 -26 -5 -4 -27 -13 -47 -19 -67 -22 -261 -198 -331 -301 -21 -30 -22 -69
-2 -97 12 -18 27 -21 107 -25 75 -3 118 -13 223 -47 72 -24 144 -47 160 -52
36 -10 271 -6 301 5 20 7 20 5 18 -86 -1 -51 -7 -117 -13 -147 -6 -29 -11 -77
-11 -106 0 -29 -4 -65 -9 -81 -5 -16 -14 -56 -20 -89 -7 -33 -16 -78 -22 -100
-5 -22 -14 -69 -20 -105 -15 -86 -22 -97 -72 -111 -23 -7 -47 -16 -54 -21 -6
-5 -24 -13 -41 -17 -27 -8 -34 -5 -78 41 -77 78 -144 125 -211 147 -75 25 -99
26 -192 5 -134 -30 -210 -129 -215 -279 -1 -34 3 -41 28 -54 16 -7 69 -16 118
-19 48 -3 88 -8 88 -11 0 -4 -35 -25 -77 -48 -95 -50 -224 -123 -278 -156 -22
-14 -51 -28 -65 -32 -14 -4 -56 -26 -95 -50 -63 -38 -145 -65 -145 -47 0 4 26
34 58 68 31 33 69 78 83 100 65 97 89 138 89 149 0 11 -79 70 -128 94 -40 21
-132 31 -178 21 -48 -11 -115 -57 -164 -114 -48 -54 -100 -162 -100 -207 0
-47 -7 -48 -96 -13 -67 27 -184 122 -184 150 0 7 -11 24 -25 38 -14 14 -36 49
-50 78 -14 29 -32 64 -41 78 -16 24 -15 28 21 87 41 69 52 104 67 208 11 81
29 122 107 248 32 52 29 121 -8 157 -16 16 -41 32 -57 36 -16 4 -47 15 -69 25
-64 28 -143 42 -202 36 l-55 -6 6 37 6 37 -14 -30 c-24 -48 -47 -69 -116 -102
-147 -71 -248 -221 -236 -353 9 -114 20 -146 72 -207 60 -71 71 -80 109 -88
17 -4 45 -13 64 -22 21 -9 73 -17 130 -20 53 -2 106 -6 117 -8 16 -4 40 -40
90 -141 38 -75 88 -159 112 -187 32 -36 42 -56 38 -71 -3 -12 -9 -75 -13 -142
-6 -117 -5 -123 21 -177 14 -31 26 -58 26 -62 0 -18 97 -170 150 -234 l60 -74
-1 -102 c-1 -55 3 -110 8 -121 6 -10 13 -41 16 -69 35 -283 52 -369 107 -545
22 -69 44 -147 49 -175 11 -57 15 -49 -104 -230 -40 -60 -92 -141 -115 -180
-24 -38 -57 -90 -72 -115 -100 -156 -148 -324 -107 -379 28 -38 49 -131 55
-245 3 -56 7 -110 9 -121 2 -12 1 -34 -3 -50 -6 -23 -18 -31 -57 -45 -28 -9
-77 -35 -110 -58 -33 -23 -67 -42 -76 -42 -9 0 -34 -13 -55 -28 -30 -22 -43
-41 -57 -84 -45 -144 1 -268 99 -268 24 0 69 -7 101 -15 37 -10 92 -15 153
-13 76 2 100 -1 121 -15 15 -10 48 -20 75 -23 87 -11 258 45 309 100 62 67 65
75 65 160 0 44 -7 108 -15 141 -58 236 -52 288 50 405 88 102 267 254 418 357
51 35 101 70 111 79 11 10 47 27 79 40 33 13 70 30 81 38 12 7 60 24 106 36
158 42 349 28 515 -35 33 -13 91 -34 130 -46 127 -42 315 -161 413 -261 122
-125 156 -203 165 -374 3 -61 12 -135 20 -165 9 -31 17 -119 20 -208 7 -181 3
-175 133 -242 82 -42 91 -44 168 -44 70 0 89 5 143 31 57 28 67 30 120 22 75
-10 124 -3 198 32 33 16 78 33 100 39 60 16 75 48 75 162 l0 92 -40 38 c-22
21 -59 47 -82 59 -24 11 -67 34 -97 50 -48 27 -62 30 -142 30 -86 0 -89 1 -95
25 -9 35 13 172 33 209 12 23 17 67 20 166 4 127 -1 189 -26 285 -9 38 -22
176 -22 240 1 65 -11 115 -35 150 -15 22 -24 50 -24 74 0 21 -9 63 -19 94 -17
47 -170 372 -232 488 -10 20 -26 50 -34 65 -8 16 -15 49 -15 74 0 100 -148
644 -189 694 -5 6 -12 34 -16 61 -4 28 -27 88 -50 135 -23 47 -54 117 -70 155
-16 39 -34 77 -42 85 -37 40 5 -89 58 -180 60 -103 74 -141 118 -316 10 -39
27 -87 38 -105 11 -19 23 -52 27 -74 5 -38 12 -70 37 -167 5 -24 14 -61 19
-83 5 -22 14 -58 20 -80 32 -113 32 -140 -1 -150 -26 -9 -96 -84 -141 -153
-21 -31 -46 -68 -55 -81 -10 -13 -27 -38 -38 -56 -145 -236 -404 -484 -609
-579 -156 -73 -382 -113 -626 -110 -136 2 -377 53 -500 107 -104 45 -128 61
-232 157 -74 69 -80 78 -169 251 -11 20 -19 50 -19 66 0 17 -19 70 -42 119
-41 88 -59 164 -78 324 -5 41 -14 109 -20 150 -16 118 -23 218 -16 245 9 35
57 35 80 0 12 -18 25 -25 48 -25 17 0 41 -8 52 -19 36 -32 141 -44 242 -26 48
8 106 20 128 26 46 12 240 111 271 138 11 10 54 40 95 67 98 64 465 431 742
742 28 31 43 28 63 -15 25 -52 99 -148 139 -178 52 -39 119 -58 184 -52 35 4
59 12 64 21 5 10 23 16 43 16 51 0 65 27 65 129 0 62 -7 111 -27 179 -19 69
-24 99 -16 111 13 21 127 100 223 155 41 24 104 62 140 84 87 55 138 78 218
98 56 13 74 23 107 58 22 24 56 51 75 61 19 10 57 39 85 66 79 75 181 150 345
254 43 28 89 60 102 71 13 12 61 43 108 70 137 78 210 128 286 195 162 144
167 161 144 455 -11 135 -25 185 -82 301 -26 51 -38 66 -74 83 -54 25 -69 25
-86 2z"/>
<path d="M3480 6191 c-74 -5 -175 -18 -247 -35 -92 -20 -128 -24 -142 -16 -47
25 -77 13 -165 -66 -78 -71 -139 -114 -262 -189 -51 -32 -218 -194 -255 -248
-12 -18 9 -1 46 37 66 66 181 159 249 201 18 11 49 31 68 45 19 14 55 38 79
55 24 16 59 42 77 57 36 31 52 35 52 14 0 -29 22 -28 53 2 18 16 46 32 62 35
17 2 75 14 130 25 55 11 145 25 200 30 99 10 286 7 315 -4 8 -3 44 -12 80 -20
98 -21 279 -94 302 -121 6 -7 22 -13 36 -13 24 0 25 1 7 20 -24 27 -86 62
-165 94 -36 15 -76 33 -90 40 -33 19 -189 55 -253 60 -29 2 -108 0 -177 -3z"/>
<path d="M3099 5693 c-8 -2 -25 -23 -37 -48 -17 -35 -25 -42 -42 -38 -16 4
-23 -2 -36 -33 -9 -22 -24 -48 -34 -59 -9 -11 -20 -33 -22 -48 -8 -43 18 -46
54 -8 16 17 38 31 49 31 12 0 28 14 40 35 15 24 28 35 45 35 13 0 28 9 34 20
6 11 17 20 25 20 35 0 27 45 -10 54 -12 3 -25 15 -28 26 -5 20 -9 21 -38 13z"/>
</g>
</svg>
