<svg version="1.1" xmlns="http://www.w3.org/2000/svg" width="512" height="438" viewBox="0 0 512 438">
<g transform="translate(0.000000,438.000000) scale(0.100000,-0.100000)"
fill="dimgray" stroke="none">
<path d="M2260 4354 c-305 -43 -632 -160 -898 -323 l-84 -51 -70 75 c-82 88
-181 153 -293 191 -72 26 -93 28 -215 28 -119 0 -144 -3 -215 -27 -137 -45
-251 -125 -332 -231 -54 -71 -115 -197 -134 -276 -18 -76 -16 -240 4 -320 41
-159 157 -323 293 -412 35 -23 64 -45 64 -49 0 -4 -22 -58 -49 -120 -179 -419
-232 -862 -150 -1261 87 -423 327 -792 690 -1063 332 -248 721 -401 1214 -477
168 -26 606 -36 781 -19 414 42 749 135 1066 297 539 276 898 727 1007 1265
83 406 25 860 -163 1289 -20 44 -36 84 -36 88 0 4 29 27 64 50 168 110 285
302 305 499 34 337 -156 635 -474 740 -71 24 -96 27 -215 27 -122 0 -143 -2
-215 -28 -112 -39 -211 -103 -294 -192 l-71 -76 -72 47 c-100 64 -331 175
-456 219 -116 40 -255 77 -387 102 -127 23 -522 28 -665 8z m540 -84 c465 -57
863 -236 1243 -562 261 -224 460 -481 612 -793 107 -218 171 -415 211 -650 24
-139 25 -462 1 -599 -118 -675 -592 -1178 -1347 -1427 -300 -99 -594 -142
-960 -142 -168 0 -287 5 -380 17 -917 113 -1589 563 -1841 1232 -185 491 -133
1069 147 1614 129 250 259 427 468 635 379 377 859 617 1347 674 107 12 400
13 499 1z"/>
<path d="M1795 3234 c-203 -50 -350 -130 -494 -268 -228 -219 -359 -477 -377
-743 -17 -253 105 -447 315 -503 60 -16 203 -14 271 4 30 8 56 13 57 12 1 -1
-5 -42 -14 -91 -18 -106 -13 -268 12 -360 87 -319 382 -551 780 -612 134 -20
395 -12 515 16 366 86 613 299 696 601 23 82 26 308 5 388 -7 29 -11 55 -9 58
3 2 17 0 31 -5 50 -19 177 -30 245 -20 291 40 433 322 342 678 -73 288 -291
575 -555 733 -162 97 -363 140 -504 107 -108 -25 -221 -111 -269 -205 -60
-119 -74 -303 -33 -458 12 -44 19 -81 17 -83 -2 -2 -41 3 -86 11 -103 20 -283
20 -374 1 -38 -8 -71 -14 -72 -12 -1 1 7 36 18 77 27 102 29 281 4 365 -39
133 -114 222 -233 277 -58 28 -78 32 -167 34 -56 2 -110 1 -121 -2z m106 -329
c188 -132 129 -474 -102 -600 -78 -42 -176 -47 -246 -11 -56 28 -92 68 -119
132 -23 54 -23 174 0 242 38 113 135 220 233 257 24 9 66 14 115 12 67 -2 82
-6 119 -32z m1582 5 c247 -125 301 -504 88 -612 -114 -58 -244 -26 -350 87
-170 179 -149 465 39 544 45 19 169 8 223 -19z m-717 -514 c176 -48 317 -131
445 -263 273 -282 354 -653 208 -951 -168 -345 -688 -520 -1175 -397 -316 80
-541 286 -600 551 -36 162 -5 373 78 539 136 269 385 469 661 529 106 24 278
20 383 -8z"/>
<path d="M1615 2851 c-50 -23 -100 -72 -128 -125 -30 -58 -30 -174 0 -232 51
-96 149 -150 258 -142 141 12 239 120 237 263 -1 104 -55 188 -147 231 -64 30
-161 32 -220 5z m199 -123 c52 -74 -35 -156 -105 -100 -28 23 -30 73 -4 102
26 29 89 27 109 -2z"/>
<path d="M3285 2846 c-95 -44 -148 -128 -148 -238 0 -55 5 -75 30 -120 105
-187 364 -183 466 7 30 56 30 173 0 231 -28 53 -78 102 -128 125 -59 27 -156
25 -220 -5z m127 -116 c24 -25 29 -36 23 -58 -10 -41 -34 -62 -72 -62 -70 0
-101 86 -47 129 36 29 60 26 96 -9z"/>
<path d="M2455 2226 c-86 -16 -223 -82 -295 -141 -94 -77 -163 -180 -176 -264
-25 -154 185 -294 489 -326 l57 -6 0 -147 c0 -171 -14 -214 -83 -260 -37 -25
-49 -27 -136 -27 -79 0 -103 4 -137 22 -40 22 -104 85 -104 103 0 6 -9 10 -20
10 -67 0 47 -133 139 -163 62 -20 176 -22 234 -5 39 12 99 61 124 103 l12 20
12 -20 c24 -40 86 -91 126 -103 58 -17 172 -15 234 5 92 30 206 163 139 163
-11 0 -20 -4 -20 -10 0 -19 -64 -82 -104 -102 -27 -14 -67 -23 -117 -26 -119
-7 -184 24 -220 102 -15 34 -19 67 -19 188 l0 147 58 6 c185 20 355 87 430
168 23 26 47 59 52 73 49 127 -96 334 -305 433 -130 62 -247 80 -370 57z m321
-105 c91 -42 115 -139 43 -176 -61 -32 -166 -7 -202 49 -24 37 -22 88 6 113
41 38 90 42 153 14z"/>
</g>
</svg>
