<svg version="1.1" xmlns="http://www.w3.org/2000/svg" width="900" height="900" viewBox="0 0 900 900">
<g transform="translate(0.000000,900.000000) scale(0.100000,-0.100000)"
fill="#000000" stroke="none">
<path d="M3294 8766 c-231 -53 -465 -246 -590 -488 -56 -110 -84 -216 -84
-323 0 -95 27 -214 66 -284 58 -108 179 -212 289 -247 27 -9 51 -18 53 -19 1
-1 -27 -62 -62 -136 -133 -278 -290 -673 -322 -814 -31 -134 -21 -425 16 -485
17 -27 18 -5 3 50 -8 30 -17 111 -20 180 -8 198 13 285 157 645 232 579 447
943 715 1210 330 329 714 475 1250 475 542 0 946 -146 1296 -469 223 -206 433
-516 606 -895 113 -246 237 -574 267 -703 83 -366 -41 -715 -365 -1028 -180
-174 -395 -316 -656 -435 -566 -256 -1142 -322 -1707 -195 -437 99 -869 321
-1159 595 -104 99 -223 249 -272 342 -27 52 -45 72 -45 50 0 -18 101 -176 153
-240 30 -37 82 -96 116 -130 35 -35 61 -65 59 -66 -2 -1 -61 -38 -133 -81
-246 -148 -372 -241 -539 -399 -44 -41 -62 -52 -69 -43 -6 8 -7 6 -3 -6 6 -20
-13 -69 -25 -61 -5 3 -7 -1 -4 -8 7 -18 -33 -81 -45 -73 -6 4 -10 3 -9 -2 5
-28 -10 -11 -82 97 -92 138 -338 468 -680 911 -291 376 -274 351 -251 372 17
16 20 15 44 -11 14 -15 90 -115 170 -222 135 -183 228 -299 228 -285 0 3 -24
34 -53 68 -28 34 -121 155 -205 270 -85 114 -155 207 -158 207 -2 0 -24 -16
-50 -35 -25 -19 -56 -35 -70 -35 -13 0 -24 -3 -24 -6 0 -4 28 -36 61 -72 51
-54 559 -723 559 -735 0 -2 -44 -2 -98 1 -102 5 -180 -7 -245 -36 -35 -15 -37
-19 -24 -36 13 -17 15 -17 68 10 48 26 64 29 149 29 67 0 111 -6 148 -18 50
-18 59 -27 159 -158 59 -77 132 -182 162 -233 64 -107 79 -126 103 -135 16 -6
11 -17 -40 -86 -32 -44 -86 -126 -121 -182 l-62 -102 50 -121 50 -122 -52 48
c-29 26 -62 59 -75 72 l-22 24 -26 -59 c-220 -496 -202 -936 49 -1195 93 -94
342 -247 450 -273 36 -9 34 -17 -10 -51 -58 -42 -238 -221 -299 -296 l-55 -67
-42 15 c-357 129 -730 -41 -874 -398 -118 -290 -69 -682 120 -963 114 -170
413 -398 679 -517 157 -71 268 -98 418 -105 213 -9 340 36 471 166 80 80 118
142 145 238 14 49 24 64 67 98 281 223 361 273 478 299 186 42 327 51 769 47
234 -2 550 -4 702 -5 l278 -1 19 -65 c26 -84 82 -170 157 -240 l59 -55 6 66
c3 36 11 80 18 97 l13 30 56 -23 c31 -12 66 -25 77 -29 20 -7 20 -8 -2 -19
-17 -10 -123 -139 -123 -151 0 -6 161 -78 165 -74 2 2 0 21 -5 41 -7 34 0 141
11 151 4 4 79 -18 138 -39 10 -4 7 -11 -11 -25 -35 -27 -101 -140 -85 -145 49
-16 217 -47 217 -39 0 1 -7 15 -15 30 -14 28 -21 128 -10 156 5 11 17 13 58 7
29 -4 60 -8 70 -8 16 -1 16 -3 -3 -29 -18 -24 -60 -132 -60 -154 0 -9 83 -11
157 -2 l52 7 -19 38 c-12 23 -20 58 -20 88 l0 49 62 1 c72 0 84 -5 65 -27 -8
-10 -26 -46 -40 -81 l-26 -63 50 6 c166 22 322 122 460 294 l35 44 122 -96
121 -96 12 -58 c46 -224 211 -390 435 -437 287 -61 650 62 1016 342 179 137
272 245 347 404 195 409 118 905 -173 1126 -178 135 -397 175 -615 113 -40
-11 -74 -19 -75 -18 -1 2 -40 55 -87 118 -81 108 -183 229 -320 378 l-57 63
-6 -63 c-3 -35 -8 -106 -11 -158 -21 -356 -123 -641 -300 -838 -51 -56 -62
-61 -45 -18 5 15 28 93 50 174 174 633 203 1327 75 1775 -14 48 -53 151 -86
229 -81 188 -138 337 -314 813 -81 220 -174 467 -206 548 l-60 149 93 97 c269
281 381 603 323 933 -26 153 -171 537 -310 824 l-82 171 49 18 c121 43 235
149 292 269 42 89 56 153 56 264 0 143 -39 263 -131 403 -183 278 -482 449
-717 409 -170 -28 -304 -133 -387 -303 -25 -51 -45 -98 -45 -104 0 -7 -31 3
-72 22 -254 116 -592 175 -933 162 -302 -12 -458 -47 -761 -173 -6 -3 -29 32
-51 78 -97 202 -242 309 -438 323 -42 3 -94 -1 -131 -9z m-869 -3952 c19 -8
117 -212 108 -227 -3 -6 -1 -7 5 -3 14 8 36 -30 26 -46 -4 -7 -3 -8 4 -4 13 8
36 -30 27 -44 -4 -6 -1 -9 7 -8 7 2 12 -5 12 -14 -1 -10 2 -16 5 -13 12 7 93
-114 85 -128 -4 -6 -4 -9 1 -5 4 4 14 3 22 -3 16 -14 18 -33 1 -23 -7 4 -8 3
-4 -5 4 -6 11 -9 16 -6 10 6 61 -60 58 -77 -2 -6 2 -12 7 -13 16 -1 35 -15 35
-26 0 -6 -6 -7 -12 -3 -9 5 -9 3 1 -9 7 -9 17 -15 21 -12 10 6 32 -20 28 -33
-2 -5 0 -9 3 -9 10 3 49 -34 49 -45 0 -5 -5 -6 -12 -2 -7 4 -8 3 -4 -5 4 -6
11 -9 16 -6 12 7 72 -64 64 -77 -4 -6 -3 -8 4 -4 6 3 13 2 16 -3 3 -4 -20 -14
-52 -20 -54 -11 -58 -11 -72 11 -42 63 -146 185 -249 292 -323 336 -377 399
-365 430 3 9 9 14 13 11 4 -2 7 6 7 18 -1 12 4 21 10 20 7 -1 11 5 10 15 0 9
4 17 11 17 6 0 15 4 20 9 5 5 3 6 -4 2 -29 -17 -10 16 20 34 35 22 38 23 62
14z m2487 -583 c213 -55 427 -190 738 -468 225 -201 214 -185 228 -333 50
-525 13 -702 -255 -1228 -62 -122 -164 -322 -226 -445 -129 -252 -193 -408
-205 -496 -5 -34 -11 -63 -13 -66 -10 -9 -588 -13 -777 -4 -1035 45 -1576 281
-1818 793 -69 147 -115 329 -132 524 -7 81 -6 91 8 87 95 -29 394 -75 490 -75
166 0 310 31 447 96 148 70 235 169 284 319 l23 67 251 -253 c274 -276 306
-319 322 -439 7 -49 11 -55 34 -58 60 -7 261 163 309 263 23 47 26 104 8 127
-16 19 -59 48 -73 48 -5 0 6 -10 25 -21 44 -27 50 -36 50 -78 0 -44 -29 -104
-80 -162 l-40 -47 -372 374 c-204 206 -375 374 -379 374 -4 0 -10 -8 -13 -17
-7 -21 -53 -73 -65 -73 -8 0 -41 71 -41 89 0 5 20 14 44 20 25 6 48 16 51 21
4 6 1 9 -6 8 -9 -2 -15 13 -19 44 -7 57 -14 66 -35 44 -31 -30 -62 -11 -83 51
-12 36 -8 43 25 43 14 0 33 4 43 10 18 9 18 13 3 67 -9 32 -18 60 -20 62 -2 3
-16 -11 -32 -30 -24 -28 -33 -32 -48 -23 -21 12 -65 93 -57 105 3 5 22 13 42
19 66 18 67 20 33 95 -18 38 -34 71 -36 73 -3 3 -16 -7 -30 -22 -14 -15 -31
-26 -38 -24 -6 3 -24 26 -39 53 -29 53 -24 75 16 75 20 1 19 2 -6 25 -16 13
-24 26 -20 29 21 13 541 198 657 234 430 134 655 167 827 123z m-2977 -2465
c71 -73 83 -181 30 -245 -33 -38 -67 -46 -112 -25 -66 32 -116 144 -98 223 4
17 18 45 32 61 20 24 33 30 66 30 35 0 46 -6 82 -44z m6149 14 c33 -39 42 -92
27 -150 -39 -145 -171 -197 -222 -86 -23 50 -24 89 -3 149 36 105 143 152 198
87z m-6466 -75 c107 -45 183 -185 152 -279 -38 -115 -199 -97 -280 31 -56 88
-62 162 -18 218 36 46 83 56 146 30z m6764 -12 c56 -50 58 -135 4 -225 -100
-169 -313 -152 -293 23 15 122 132 236 230 225 21 -2 48 -13 59 -23z m-6056
-228 c57 -37 91 -184 73 -314 -32 -229 -190 -397 -406 -432 -140 -23 -324 29
-424 119 -66 59 -83 98 -69 152 13 50 33 63 151 101 157 51 236 105 412 281
72 72 118 110 140 116 38 10 87 1 123 -23z m5392 -5 c16 -12 46 -42 66 -66 56
-66 202 -190 276 -234 36 -22 109 -53 164 -71 109 -35 130 -50 145 -105 14
-51 -3 -88 -68 -146 -100 -90 -289 -142 -428 -119 -214 36 -370 204 -404 435
-19 124 18 274 75 311 57 38 118 36 174 -5z m-6231 -66 c76 -44 113 -145 69
-193 -72 -80 -256 22 -256 142 0 33 25 67 60 80 25 10 83 -3 127 -29z m7060 4
c62 -58 -9 -189 -118 -218 -53 -14 -94 -5 -119 27 -50 64 10 169 119 210 45
16 88 9 118 -19z"/>
<path d="M5395 7717 c-76 -36 -130 -107 -160 -207 -6 -20 7 -11 63 41 121 115
262 166 393 141 35 -6 65 -10 67 -7 12 11 -144 48 -223 52 -80 4 -96 1 -140
-20z"/>
<path d="M3942 7695 c-77 -27 -157 -64 -150 -70 2 -2 28 5 58 15 127 44 275
17 410 -75 l80 -55 -25 50 c-29 56 -81 112 -128 136 -55 29 -160 29 -245 -1z"/>
<path d="M3930 7450 c-190 -40 -401 -250 -534 -530 -67 -143 -90 -234 -91
-360 0 -97 3 -110 32 -172 39 -83 98 -143 199 -202 187 -110 337 -115 529 -19
114 58 222 131 270 186 58 63 118 188 142 292 26 114 23 311 -6 420 -41 155
-115 276 -201 330 -82 51 -237 76 -340 55z m348 -607 c132 -107 102 -322 -57
-405 -69 -36 -129 -37 -197 -3 -105 52 -164 124 -164 199 0 27 9 46 35 75 38
42 163 132 217 156 51 23 121 14 166 -22z"/>
<path d="M4075 6743 c-88 -22 -132 -140 -80 -219 53 -81 178 -84 234 -5 33 46
37 90 13 145 -29 64 -97 96 -167 79z"/>
<path d="M5431 7444 c-69 -18 -141 -58 -179 -98 -119 -123 -188 -375 -163
-597 18 -164 71 -297 156 -396 64 -74 276 -202 394 -237 149 -44 317 -2 483
119 209 153 209 452 -1 807 -190 322 -442 469 -690 402z m48 -584 c56 -26 171
-110 210 -156 74 -84 9 -208 -146 -276 -146 -64 -323 66 -323 237 0 83 43 160
108 195 48 25 96 25 151 0z"/>
<path d="M5415 6736 c-41 -18 -83 -69 -90 -109 -9 -44 19 -112 57 -139 44 -30
114 -35 156 -9 118 75 82 252 -55 267 -21 2 -52 -2 -68 -10z"/>
<path d="M2148 6997 c-10 -36 -48 -146 -86 -244 -87 -222 -133 -365 -178 -550
-37 -148 -41 -197 -10 -95 10 31 61 176 114 322 106 295 143 411 167 517 22
95 15 137 -7 50z"/>
<path d="M1001 6798 c15 -13 62 -50 105 -83 149 -114 327 -304 605 -645 41
-49 59 -49 38 1 -66 160 -528 623 -724 725 -48 25 -49 25 -24 2z"/>
<path d="M4710 6294 c-14 -2 -50 -9 -80 -15 -168 -35 -290 -149 -290 -272 0
-40 5 -53 37 -88 42 -47 81 -69 175 -97 36 -12 92 -35 124 -53 81 -46 162 -47
254 -3 36 18 97 41 136 53 81 24 146 67 169 110 34 66 7 167 -65 242 -84 88
-300 146 -460 123z m135 -88 l29 -19 -22 -18 c-33 -26 -125 -42 -223 -37 -142
7 -178 49 -70 83 68 22 247 16 286 -9z"/>
<path d="M1752 5957 c-49 -51 -63 -99 -75 -255 -13 -167 -19 -148 107 -306 44
-56 122 -156 173 -222 159 -207 269 -305 337 -303 30 1 30 1 -5 8 -20 4 -52
17 -71 29 -54 33 -183 173 -287 312 -52 69 -123 160 -158 202 l-63 77 -6 83
c-7 103 9 235 35 287 11 21 34 50 51 63 29 23 29 24 11 40 -18 15 -21 14 -49
-15z"/>
<path d="M1999 5950 c-85 -8 -129 -22 -129 -40 0 -5 107 -6 263 -3 340 8 634
-16 805 -66 18 -6 30 -6 27 -1 -9 15 -153 57 -255 73 -209 35 -551 53 -711 37z"/>
<path d="M4260 5605 c21 -25 152 -124 231 -173 57 -36 73 -53 112 -120 64
-110 112 -154 176 -160 82 -8 121 27 215 190 15 28 41 55 59 64 44 23 224 146
267 183 28 24 14 19 -65 -24 -118 -65 -244 -119 -325 -140 -81 -21 -201 -19
-295 5 -91 23 -265 104 -339 157 -28 20 -44 28 -36 18z m454 -280 c70 -21 132
-15 220 20 l61 25 -77 -75 c-117 -113 -140 -112 -261 6 -75 73 -79 78 -42 60
22 -10 67 -27 99 -36z"/>
<path d="M1219 5146 c-6 -6 -319 -62 -464 -83 -86 -12 -185 -17 -352 -18 -127
0 -226 -3 -220 -6 7 -4 44 -12 84 -18 271 -42 973 40 973 113 0 15 -11 21 -21
12z"/>
<path d="M1129 4872 c-91 -92 -221 -237 -289 -322 -68 -85 -151 -184 -184
-219 -48 -51 -54 -60 -26 -41 63 43 212 202 395 421 98 118 201 238 228 266
28 29 49 55 46 58 -3 2 -80 -71 -170 -163z"/>
<path d="M1423 5025 c-14 -37 81 -259 196 -460 120 -210 250 -388 324 -445 38
-30 34 -20 -19 42 -63 74 -161 222 -233 353 -58 106 -241 497 -241 516 0 15
-20 10 -27 -6z"/>
</g>
</svg>
