<svg version="1.1" xmlns="http://www.w3.org/2000/svg" width="2334pt" height="2206pt" viewBox="0 0 2334 2206">
<g transform="translate(0.000000,2206.000000) scale(0.100000,-0.100000)" fill="#000000" stroke="none">
<path d="M9685 22045 c-481 -58 -822 -212 -1137 -514 -181 -173 -301 -337
-408 -556 -142 -291 -209 -587 -210 -920 0 -250 30 -442 105 -670 81 -249 170
-410 389 -709 75 -101 136 -187 136 -191 0 -3 -71 -137 -157 -298 -175 -327
-213 -405 -303 -627 -188 -464 -330 -937 -390 -1295 -57 -346 -62 -700 -20
-1520 17 -318 24 -970 12 -1073 -18 -154 -36 -200 -109 -289 -140 -168 -237
-332 -506 -858 -451 -884 -942 -1786 -1108 -2040 -76 -115 -78 -156 -6 -155
35 1 98 34 151 79 58 50 114 76 279 130 154 50 300 85 447 108 177 28 669 25
920 -6 615 -74 1219 -221 2060 -500 1352 -450 1992 -797 2648 -1436 267 -260
475 -496 843 -955 322 -403 540 -657 769 -894 184 -191 267 -267 369 -335 110
-75 159 -125 145 -148 -6 -9 -100 -47 -220 -88 -252 -87 -372 -135 -552 -221
-642 -306 -1070 -740 -1420 -1439 -310 -620 -463 -1267 -502 -2115 -13 -275
-10 -386 27 -1123 14 -285 24 -519 22 -521 -6 -6 -1041 -55 -1389 -67 -1015
-33 -2053 90 -2965 352 -580 167 -1276 445 -1805 721 -954 499 -1544 1017
-1844 1618 -119 240 -173 429 -196 685 -21 236 -10 812 21 1070 75 637 300
1259 872 2400 412 825 739 1555 836 1869 25 80 28 156 7 156 -63 0 -344 -448
-738 -1180 -308 -572 -612 -1264 -881 -2010 -270 -748 -398 -1231 -449 -1695
-21 -190 -17 -821 5 -1005 63 -509 175 -866 377 -1200 227 -376 536 -766 846
-1070 200 -196 290 -263 468 -350 127 -62 206 -116 206 -140 0 -37 -579 -83
-1690 -135 -1195 -56 -2081 -119 -2832 -201 -543 -59 -781 -109 -805 -170 -48
-125 951 -266 2757 -389 946 -64 1434 -78 3655 -106 1340 -16 7329 -23 9095
-10 2832 21 3919 42 4670 91 1504 99 2913 248 3095 329 228 101 -136 201
-1075 296 -595 59 -1253 103 -2340 155 -1148 55 -1680 102 -1680 150 0 23 113
153 266 305 94 93 199 201 232 238 274 305 504 746 626 1197 120 446 148 958
75 1404 -84 515 -299 966 -607 1273 -130 128 -355 304 -523 408 -215 133 -497
248 -709 290 -105 20 -262 63 -274 76 -6 5 38 106 112 256 182 372 249 597
239 803 -9 180 -97 478 -234 795 -158 363 -306 620 -527 914 -133 176 -246
340 -246 357 0 21 69 51 200 89 65 19 148 49 182 66 364 184 1107 921 1178
1170 13 45 -8 184 -66 429 -58 244 -66 367 -36 506 58 261 211 565 669 1324
234 389 334 567 433 774 254 530 380 990 434 1591 34 371 46 877 26 1089 -18
186 -48 312 -141 588 -179 534 -220 770 -239 1392 -22 707 -56 924 -182 1168
-91 174 -222 304 -493 487 -235 159 -358 220 -516 256 -61 15 -156 19 -554 25
-442 6 -486 9 -557 28 -105 29 -168 62 -273 147 -390 312 -1066 620 -1741 790
-653 165 -1307 204 -2094 124 -222 -22 -398 -47 -894 -124 -191 -30 -351 -55
-355 -55 -4 0 -70 74 -146 165 -224 269 -419 436 -630 540 -121 60 -199 84
-380 116 -153 27 -576 36 -750 14z m4670 -1134 c552 -37 819 -81 1186 -195
1468 -456 2755 -1570 3394 -2936 210 -451 343 -913 390 -1354 83 -795 -10
-2065 -179 -2430 -38 -82 -72 -114 -104 -97 -11 6 -36 33 -56 61 -59 82 -103
76 -196 -27 -289 -322 -605 -951 -804 -1602 -66 -214 -116 -415 -176 -706 -81
-394 -121 -536 -171 -610 -33 -48 -65 -60 -129 -46 -61 13 -117 2 -145 -29
-11 -12 -20 -41 -23 -74 -6 -79 27 -144 128 -252 82 -87 140 -183 140 -232 0
-134 -421 -379 -970 -564 -197 -66 -250 -79 -329 -79 -111 -1 -201 41 -456
211 -573 381 -1147 861 -2215 1850 -493 457 -693 635 -1010 901 -813 683
-1471 1114 -2169 1423 -369 162 -564 198 -990 177 -414 -20 -841 -34 -847 -28
-12 11 -164 441 -199 559 -38 131 -67 274 -87 428 -26 212 -13 1071 23 1425
38 384 126 655 374 1160 152 308 225 401 315 399 20 -1 82 -13 136 -27 346
-91 1011 -142 1219 -93 118 27 204 60 355 135 269 135 431 249 610 430 280
283 436 613 506 1071 13 80 18 211 21 550 l5 446 206 43 c375 77 564 101 937
121 216 11 1099 5 1310 -9z"/>
<path d="M16521 14850 c-72 -26 -266 -134 -545 -303 -418 -253 -529 -316 -751
-427 -263 -130 -438 -205 -686 -295 -459 -166 -687 -290 -870 -474 -80 -80
-103 -111 -140 -185 -40 -82 -44 -95 -47 -185 -5 -120 8 -187 57 -288 112
-232 327 -417 705 -608 424 -214 941 -367 1481 -437 62 -8 209 -13 385 -13
278 0 286 1 337 24 29 13 69 42 89 64 39 43 114 193 159 317 112 314 175 824
175 1420 0 761 -105 1333 -257 1396 -18 8 -34 14 -35 14 -2 -1 -27 -9 -57 -20z"/>
</g>
</svg>
