<svg width="96" height="96" viewBox="0 0 96 96" version="1.1" xmlns="http://www.w3.org/2000/svg">
<title>ring</title>
<defs><clipPath id="clip-session/ProgressRing22">
    <path d="M1.3322676295501878e-15,-43.99272667157606A3.84,3.84,0,0,1,4.173913043478262,-47.81818116475659A48,48,0,0,1,47.73178489036607,-5.067219274890482A3.84,3.84,0,0,1,43.98503691537988,-0.8225129498486656L43.98503691537988,-0.8225129498486652A3.84,3.84,0,0,1,40.09469930790749,-4.2564641909080025A40.32,40.32,0,0,0,3.5060869565217385,-40.167272178395535A3.84,3.84,0,0,1,1.3322676295501878e-15,-43.99272667157606Z"/>
</clipPath>
</defs>
    <g transform="translate(48, 48)">
        <path d="M2.9391523179536475e-15,-48A48,48,0,1,1,-2.9391523179536475e-15,48A48,48,0,1,1,2.9391523179536475e-15,-48M-7.406663841243192e-15,-40.32A40.32,40.32,0,1,0,7.406663841243192e-15,40.32A40.32,40.32,0,1,0,-7.406663841243192e-15,-40.32Z" fill="#e5e5e5"/>
        <circle clip-path="url(#clip-session/ProgressRing22)" cx="43.08019378981177" cy="-9.705797392912297" fill="#fff" r="6.4"/>
        <path d="M1.3322676295501878e-15,-43.99272667157606A3.84,3.84,0,0,1,4.173913043478262,-47.81818116475659A48,48,0,0,1,46.825137254326485,-10.554928759280479A3.84,3.84,0,0,1,43.59458201472017,-5.9052873733491715L43.59458201472017,-5.9052873733491715A3.84,3.84,0,0,1,39.33311529363424,-8.866140157795602A40.32,40.32,0,0,0,3.5060869565217385,-40.167272178395535A3.84,3.84,0,0,1,1.3322676295501878e-15,-43.99272667157606Z" fill="#ffd900"/></g></svg>