<svg width="96" height="96" viewBox="0 0 96 96" version="1.1" xmlns="http://www.w3.org/2000/svg">
<title>ring</title>
<defs>
    <clipPath id="clip-session/ProgressRing15">
        <path d="M1.3322676295501878e-15,-43.99272667157606A3.84,3.84,0,0,1,4.173913043478262,-47.81818116475659A48,48,0,0,1,38.14780598843916,29.13322670540298A3.84,3.84,0,0,1,32.50877561351718,29.64016714038554L32.50877561351718,29.64016714038554A3.84,3.84,0,0,1,32.0441570302889,24.471910432538504A40.32,40.32,0,0,0,3.5060869565217385,-40.167272178395535A3.84,3.84,0,0,1,1.3322676295501878e-15,-43.99272667157606Z"/>
    </clipPath>
</defs>
    <g transform="translate(48, 48)">
        <path d="M2.9391523179536475e-15,-48A48,48,0,1,1,-2.9391523179536475e-15,48A48,48,0,1,1,2.9391523179536475e-15,-48M-7.406663841243192e-15,-40.32A40.32,40.32,0,1,0,7.406663841243192e-15,40.32A40.32,40.32,0,1,0,-7.406663841243192e-15,-40.32Z" fill="#e5e5e5"/>
        <circle clip-path="url(#clip-session/ProgressRing15)" cx="37.958461230664426" cy="22.56680794884702" fill="#fff" r="6.4"/>
    <path d="M1.3322676295501878e-15,-43.99272667157606A3.84,3.84,0,0,1,4.173913043478262,-47.81818116475659A48,48,0,0,1,41.2618939794607,24.52460204015031A3.84,3.84,0,0,1,35.71936675972225,25.680475818887174L35.71936675972225,25.680475818887174A3.84,3.84,0,0,1,34.65999094274699,20.600665713726258A40.32,40.32,0,0,0,3.5060869565217385,-40.167272178395535A3.84,3.84,0,0,1,1.3322676295501878e-15,-43.99272667157606Z" fill="#ffd900"/></g></svg>