<svg width="96" height="96" viewBox="0 0 96 96" version="1.1" xmlns="http://www.w3.org/2000/svg">
<title>ring</title>
<defs><clipPath id="clip-session/ProgressRing13"><path d="M1.3322676295501878e-15,-43.99272667157606A3.84,3.84,0,0,1,4.173913043478262,-47.81818116475659A48,48,0,1,1,-32.94704411100521,-34.90690883403279A3.84,3.84,0,0,1,-27.300108935980784,-34.49730499739916L-27.300108935980784,-34.49730499739916A3.84,3.84,0,0,1,-27.67551705324437,-29.321803420587543A40.32,40.32,0,1,0,3.5060869565217385,-40.167272178395535A3.84,3.84,0,0,1,1.3322676295501878e-15,-43.99272667157606Z"/></clipPath></defs><g transform="translate(48, 48)"><path d="M2.9391523179536475e-15,-48A48,48,0,1,1,-2.9391523179536475e-15,48A48,48,0,1,1,2.9391523179536475e-15,-48M-7.406663841243192e-15,-40.32A40.32,40.32,0,1,0,7.406663841243192e-15,40.32A40.32,40.32,0,1,0,-7.406663841243192e-15,-40.32Z" fill="#e5e5e5"/><circle clip-path="url(#clip-session/ProgressRing13)" cx="-33.81972315687488" cy="-28.395984321596266" fill="#fff" r="6.4"/><path d="M1.3322676295501878e-15,-43.99272667157606A3.84,3.84,0,0,1,4.173913043478262,-47.81818116475659A48,48,0,1,1,-36.763962382732686,-30.861157948479764A3.84,3.84,0,0,1,-31.107555352357725,-31.107555352357732L-31.107555352357725,-31.107555352357732A3.84,3.84,0,0,1,-30.881728401495455,-25.923372676723005A40.32,40.32,0,1,0,3.5060869565217385,-40.167272178395535A3.84,3.84,0,0,1,1.3322676295501878e-15,-43.99272667157606Z" fill="#ffd900"/></g></svg>