<svg width="96" height="96" viewBox="0 0 96 96" version="1.1" xmlns="http://www.w3.org/2000/svg">
<title>ring</title>
<defs>
    <clipPath id="clip-session/ProgressRing14">
        <path d="M1.3322676295501878e-15,-43.99272667157606A3.84,3.84,0,0,1,4.173913043478262,-47.81818116475659A48,48,0,0,1,-1.3858336358610983,47.979990257749286A3.84,3.84,0,0,1,-5.08918614055804,43.697370452084996L-5.08918614055804,43.697370452084996A3.84,3.84,0,0,1,-1.164100254123319,40.30319181650939A40.32,40.32,0,0,0,3.5060869565217385,-40.167272178395535A3.84,3.84,0,0,1,1.3322676295501878e-15,-43.99272667157606Z"/>
    </clipPath>
</defs>
    <g transform="translate(48, 48)">
    <path d="M2.9391523179536475e-15,-48A48,48,0,1,1,-2.9391523179536475e-15,48A48,48,0,1,1,2.9391523179536475e-15,-48M-7.406663841243192e-15,-40.32A40.32,40.32,0,1,0,7.406663841243192e-15,40.32A40.32,40.32,0,1,0,-7.406663841243192e-15,-40.32Z" fill="#e5e5e5"/><circle clip-path="url(#clip-session/ProgressRing14)" cx="3.8351625098103286" cy="43.99314865434554" fill="#fff" r="6.4"/><path d="M1.3322676295501878e-15,-43.99272667157606A3.84,3.84,0,0,1,4.173913043478262,-47.81818116475659A48,48,0,0,1,4.17391304347826,47.81818116475659A3.84,3.84,0,0,1,1.3322676295501878e-15,43.99272667157606L1.3322676295501878e-15,43.99272667157606A3.84,3.84,0,0,1,3.50608695652174,40.16727217839553A40.32,40.32,0,0,0,3.5060869565217385,-40.167272178395535A3.84,3.84,0,0,1,1.3322676295501878e-15,-43.99272667157606Z" fill="#ffd900"/></g></svg>